#!OML:ASF H:\Punching\Project 1\Capture day 1\Session 1\female.ASF
:FULLY-SPECIFIED
:DEGREES
1876
root -0.906756 15.1389 11.0509 15.5932 -19.6219 -2.32953
lowerback 2.95546 -1.43456 0.017768
upperback -3.68611 -1.95381 -0.491441
thorax -5.48974 -0.984856 -0.36852
lowerneck -9.74996 7.34391 13.5143
upperneck 20.2538 8.89226 -5.91284
head 8.83441 4.63615 -3.24454
rclavicle -3.65764e-014 -1.59028e-015
rhumerus -4.51399 35.9491 -76.3799
rradius 120.331
rwrist -9.35953
rhand -21.8406 2.10416
rfingers 7.12502
rthumb 4.56265 -27.8267
lclavicle -3.65764e-014 -1.59028e-015
lhumerus -20.7189 -30.6654 71.1059
lradius 72.5495
lwrist -16.7637
lhand -17.1789 5.67035
lfingers 7.12502
lthumb 9.06271 35.4557
rfemur -6.42169 7.50224 11.0582
rtibia 22.6981
rfoot -23.8143 -13.1538
rtoes -17.9577
lfemur -42.5824 -0.804773 -3.59236
ltibia 32.501
lfoot -1.21597 12.7263
ltoes -0.169778
1877
root -0.990622 15.1676 10.9537 15.3491 -19.2587 -2.07811
lowerback 2.86024 -1.37122 0.125802
upperback -3.68145 -1.86969 -0.635238
thorax -5.43821 -0.950832 -0.586848
lowerneck -9.75236 7.24416 13.3239
upperneck 20.3416 8.77909 -5.84821
head 8.83935 4.57669 -3.20715
rclavicle -1.96797e-014 -1.43125e-014
rhumerus -5.67737 35.6721 -76.2766
rradius 119.638
rwrist -9.2202
rhand -21.3119 2.00745
rfingers 7.12502
rthumb 5.07322 -27.9118
lclavicle -1.96797e-014 -1.43125e-014
lhumerus -22.008 -30.3354 70.8172
lradius 73.2763
lwrist -16.3174
lhand -16.7958 5.86136
lfingers 7.12502
lthumb 9.43236 35.6303
rfemur -6.52744 7.33772 11.3618
rtibia 22.9632
rfoot -23.869 -13.2845
rtoes -17.8471
lfemur -41.761 -1.75325 -3.01114
ltibia 30.5983
lfoot -0.142696 13.6663
ltoes 0.492568
1878
root -1.07477 15.1969 10.854 15.1582 -18.8494 -1.85315
lowerback 2.75318 -1.32095 0.258063
upperback -3.68649 -1.80152 -0.768921
thorax -5.39013 -0.925429 -0.807002
lowerneck -9.75921 7.14582 13.1335
upperneck 20.4201 8.66725 -5.78465
head 8.84241 4.51749 -3.16966
rclavicle 2.08724e-015 2.70347e-014
rhumerus -6.89462 35.404 -76.229
rradius 118.901
rwrist -9.08355
rhand -20.8762 1.98767
rfingers 7.12502
rthumb 5.4939 -27.9211
lclavicle 2.08724e-015 2.70347e-014
lhumerus -23.2685 -29.9714 70.5129
lradius 73.9385
lwrist -15.9997
lhand -16.4461 6.05455
lfingers 7.12502
lthumb 9.76978 35.8079
rfemur -6.65506 7.11898 11.6983
rtibia 23.1678
rfoot -23.9052 -13.3964
rtoes -17.5774
lfemur -40.9874 -2.75995 -2.3621
ltibia 28.6124
lfoot 0.990389 14.7334
ltoes 1.35367
1879
root -1.15898 15.2263 10.7526 15.0209 -18.3921 -1.6603
lowerback 2.63121 -1.28617 0.414702
upperback -3.69563 -1.7524 -0.888785
thorax -5.33802 -0.910097 -1.02521
lowerneck -9.7895 7.05262 12.9473
upperneck 20.4929 8.55886 -5.72257
head 8.84876 4.45953 -3.13202
rclavicle 2.83268e-014 -7.15625e-015
rhumerus -8.14523 35.1404 -76.2252
rradius 118.121
rwrist -8.98655
rhand -20.5224 2.00363
rfingers 7.12502
rthumb 5.83547 -27.896
lclavicle 2.83268e-014 -7.15625e-015
lhumerus -24.481 -29.5751 70.1844
lradius 74.5272
lwrist -15.8128
lhand -16.1315 6.23668
lfingers 7.12502
lthumb 10.0733 35.9756
rfemur -6.79825 6.84707 12.075
rtibia 23.3062
rfoot -23.9244 -13.5042
rtoes -17.162
lfemur -40.2757 -3.83237 -1.62839
ltibia 26.5631
lfoot 2.17013 15.952
ltoes 2.44359
1880
root -1.243 15.255 10.6496 14.9463 -17.879 -1.50521
lowerback 2.48465 -1.26988 0.603562
upperback -3.71379 -1.72612 -0.992967
thorax -5.28208 -0.907013 -1.2439
lowerneck -9.83359 6.96462 12.7691
upperneck 20.5579 8.45433 -5.66081
head 8.85615 4.40356 -3.09473
rclavicle -7.25564e-015 2.78299e-014
rhumerus -9.42797 34.8746 -76.2649
rradius 117.306
rwrist -8.95538
rhand -20.2262 2.00388
rfingers 7.12502
rthumb 6.12146 -27.8877
lclavicle -7.25564e-015 2.78299e-014
lhumerus -25.6598 -29.1512 69.8464
lradius 75.0444
lwrist -15.7402
lhand -15.859 6.39061
lfingers 7.12502
lthumb 10.3362 36.1166
rfemur -6.96001 6.52006 12.4996
rtibia 23.373
rfoot -23.9286 -13.6218
rtoes -16.5986
lfemur -39.6525 -4.99297 -0.78239
ltibia 24.4736
lfoot 3.36469 17.365
ltoes 3.80994
1881
root -1.32672 15.2827 10.5459 14.926 -17.3187 -1.39082
lowerback 2.31731 -1.26674 0.823575
upperback -3.7435 -1.71578 -1.07953
thorax -5.22717 -0.912709 -1.46095
lowerneck -9.87829 6.87711 12.595
upperneck 20.6132 8.34882 -5.59625
head 8.86061 4.34757 -3.05714
rclavicle 3.60794e-014 1.98785e-014
rhumerus -10.7504 34.6031 -76.3438
rradius 116.458
rwrist -9.00567
rhand -19.9736 1.94458
rfingers 7.12502
rthumb 6.36534 -27.9398
lclavicle 3.60794e-014 1.98785e-014
lhumerus -26.8177 -28.7185 69.5154
lradius 75.5004
lwrist -15.7323
lhand -15.6256 6.50621
lfingers 7.12502
lthumb 10.5613 36.2209
rfemur -7.13354 6.15731 12.9744
rtibia 23.3745
rfoot -23.922 -13.7641
rtoes -15.9149
lfemur -39.1206 -6.28526 0.213682
ltibia 22.3709
lfoot 4.50466 19.0408
ltoes 5.50331
1882
root -1.40977 15.3085 10.4428 14.9466 -16.7195 -1.31679
lowerback 2.13229 -1.27547 1.07291
upperback -3.78134 -1.72002 -1.14891
thorax -5.17166 -0.926423 -1.67593
lowerneck -9.92471 6.79163 12.4277
upperneck 20.6635 8.24324 -5.52569
head 8.86409 4.29253 -3.01843
rclavicle 2.23633e-014 1.59028e-015
rhumerus -12.0988 34.3262 -76.454
rradius 115.586
rwrist -9.14988
rhand -19.7308 1.77031
rfingers 7.12502
rthumb 6.59968 -28.1069
lclavicle 2.23633e-014 1.59028e-015
lhumerus -27.9604 -28.2893 69.1953
lradius 75.9099
lwrist -15.7174
lhand -15.4212 6.57947
lfingers 7.12502
lthumb 10.7585 36.284
rfemur -7.30966 5.77562 13.4963
rtibia 23.3262
rfoot -23.9121 -13.9427
rtoes -15.1456
lfemur -38.6831 -7.78736 1.41055
ltibia 20.2933
lfoot 5.46077 21.085
ltoes 7.56643
1883
root -1.49178 15.3317 10.3408 14.994 -16.0932 -1.27023
lowerback 1.93725 -1.2914 1.3354
upperback -3.83124 -1.73366 -1.20266
thorax -5.12362 -0.945103 -1.88166
lowerneck -9.95685 6.70383 12.2645
upperneck 20.7106 8.13417 -5.44943
head 8.8638 4.23691 -2.97921
rclavicle -5.52621e-014 -1.66979e-014
rhumerus -13.4799 34.0427 -76.5897
rradius 114.685
rwrist -9.38736
rhand -19.494 1.49938
rfingers 7.12502
rthumb 6.82833 -28.3705
lclavicle -5.52621e-014 -1.66979e-014
lhumerus -29.1049 -27.8775 68.9037
lradius 76.2896
lwrist -15.646
lhand -15.2337 6.61605
lfingers 7.12502
lthumb 10.9394 36.3111
rfemur -7.49309 5.39826 14.0456
rtibia 23.2558
rfoot -23.905 -14.1631
rtoes -14.3368
lfemur -38.354 -9.56101 2.834
ltibia 18.294
lfoot 6.06386 23.5692
ltoes 9.90849
1884
root -1.57217 15.3517 10.241 15.0492 -15.4668 -1.24218
lowerback 1.7393 -1.30573 1.59949
upperback -3.89211 -1.74558 -1.24342
thorax -5.08527 -0.962884 -2.07499
lowerneck -9.96661 6.61156 12.1013
upperneck 20.7586 8.02034 -5.3671
head 8.85929 4.18003 -2.93906
rclavicle 3.37934e-015 3.10104e-014
rhumerus -14.8949 33.7539 -76.7447
rradius 113.758
rwrist -9.71534
rhand -19.2653 1.15352
rfingers 7.12502
rthumb 7.04908 -28.7091
lclavicle 3.37934e-015 3.10104e-014
lhumerus -30.2752 -27.4825 68.6621
lradius 76.663
lwrist -15.4794
lhand -15.0544 6.64014
lfingers 7.12502
lthumb 11.1123 36.3259
rfemur -7.68704 5.05559 14.6007
rtibia 23.2008
rfoot -23.9071 -14.4168
rtoes -13.5425
lfemur -38.1396 -11.6598 4.50554
ltibia 16.4403
lfoot 6.05202 26.52
ltoes 12.7119
1885
root -1.65024 15.3679 10.1441 15.0979 -14.8563 -1.22329
lowerback 1.54852 -1.31444 1.85486
upperback -3.96053 -1.7508 -1.27464
thorax -5.05824 -0.976998 -2.25381
lowerneck -9.95988 6.51481 11.94
upperneck 20.8128 7.90105 -5.28018
head 8.85362 4.1215 -2.89871
rclavicle 2.17669e-014 1.66979e-014
rhumerus -16.334 33.4572 -76.9115
rradius 112.799
rwrist -10.1182
rhand -19.0549 0.774284
rfingers 7.12502
rthumb 7.25217 -29.0814
lclavicle 2.17669e-014 1.66979e-014
lhumerus -31.4703 -27.1039 68.474
lradius 77.0367
lwrist -15.2009
lhand -14.8758 6.66318
lfingers 7.12502
lthumb 11.2846 36.3396
rfemur -7.90006 4.76756 15.1414
rtibia 23.2003
rfoot -23.9274 -14.6898
rtoes -12.7957
lfemur -38.0606 -14.0441 6.38307
ltibia 14.8132
lfoot 5.17638 29.7765
ltoes 15.8081
1886
root -1.72531 15.3805 10.0501 15.1307 -14.2768 -1.20882
lowerback 1.37504 -1.31916 2.09074
upperback -4.02315 -1.75156 -1.29603
thorax -5.03394 -0.987884 -2.41154
lowerneck -9.97252 6.42446 11.7847
upperneck 20.8755 7.78778 -5.19511
head 8.8557 4.06582 -2.85856
rclavicle -2.18663e-015 3.97569e-015
rhumerus -17.7502 33.1594 -77.0718
rradius 111.8
rwrist -10.5738
rhand -18.8583 0.411063
rfingers 7.12502
rthumb 7.4419 -29.438
lclavicle -2.18663e-015 3.97569e-015
lhumerus -32.6755 -26.7135 68.3314
lradius 77.4122
lwrist -14.8151
lhand -14.7049 6.69964
lfingers 7.12502
lthumb 11.4494 36.367
rfemur -8.16346 4.54546 15.654
rtibia 23.3278
rfoot -23.9914 -14.9651
rtoes -12.1043
lfemur -38.1642 -16.5842 8.36911
ltibia 13.559
lfoot 3.13536 32.9736
ltoes 19.1586
1887
root -1.79658 15.3907 9.95935 15.1245 -13.743 -1.18635
lowerback 1.23542 -1.31789 2.29719
upperback -4.06821 -1.74513 -1.31179
thorax -5.00899 -0.993645 -2.54683
lowerneck -10.0211 6.34247 11.6356
upperneck 20.947 7.68224 -5.11576
head 8.86897 4.01315 -2.81934
rclavicle 1.36167e-014 -1.11319e-014
rhumerus -19.1256 32.859 -77.2175
rradius 110.752
rwrist -11.0502
rhand -18.6791 0.083534
rfingers 7.12502
rthumb 7.61485 -29.7594
lclavicle 1.36167e-014 -1.11319e-014
lhumerus -33.8806 -26.2958 68.2349
lradius 77.7806
lwrist -14.3682
lhand -14.5428 6.76412
lfingers 7.12502
lthumb 11.6057 36.4227
rfemur -8.44688 4.38327 16.1185
rtibia 23.5631
rfoot -24.0762 -15.2161
rtoes -11.4971
lfemur -38.3641 -19.0249 10.2425
ltibia 12.6628
lfoot 0.0880257 35.609
ltoes 22.3038
1888
root -1.86296 15.3944 9.87106 15.0933 -13.2484 -1.14663
lowerback 1.12245 -1.31453 2.473
upperback -4.09686 -1.73687 -1.32675
thorax -4.98084 -0.996956 -2.66381
lowerneck -10.1156 6.27217 11.501
upperneck 21.0257 7.58745 -5.04688
head 8.89551 3.96493 -2.78342
rclavicle -1.91827e-014 -1.82882e-014
rhumerus -20.4544 32.5488 -77.3547
rradius 109.652
rwrist -11.512
rhand -18.5047 -0.198377
rfingers 7.12502
rthumb 7.78326 -30.0351
lclavicle -1.91827e-014 -1.82882e-014
lhumerus -35.0734 -25.8503 68.1793
lradius 78.116
lwrist -13.9215
lhand -14.4331 6.86869
lfingers 7.12502
lthumb 11.7115 36.5213
rfemur -8.77442 4.25902 16.5211
rtibia 23.919
rfoot -24.182 -15.4307
rtoes -10.9575
lfemur -38.596 -21.0095 11.7292
ltibia 12.1303
lfoot -3.29521 37.2362
ltoes 24.7248
1889
root -1.92501 15.403 9.78498 15.0324 -12.7982 -1.0827
lowerback 1.0465 -1.3049 2.61763
upperback -4.11383 -1.72103 -1.34607
thorax -4.96008 -0.995219 -2.76754
lowerneck -10.2418 6.20847 11.3773
upperneck 21.1074 7.4976 -4.98366
head 8.93038 3.91886 -2.74971
rclavicle -1.90336e-014 -1.19271e-015
rhumerus -21.7676 32.2175 -77.5017
rradius 108.506
rwrist -11.927
rhand -18.342 -0.451992
rfingers 7.12502
rthumb 7.94029 -30.2829
lclavicle -1.90336e-014 -1.19271e-015
lhumerus -36.2556 -25.3682 68.1651
lradius 78.4115
lwrist -13.4817
lhand -14.3331 6.98057
lfingers 7.12502
lthumb 11.8079 36.6277
rfemur -9.13555 4.15627 16.8636
rtibia 24.367
rfoot -24.283 -15.608
rtoes -10.4943
lfemur -38.692 -22.2659 12.5609
ltibia 11.9015
lfoot -6.15054 37.7293
ltoes 26.0349
1890
root -1.98219 15.4118 9.70059 14.9525 -12.3873 -1.00105
lowerback 1.00424 -1.2882 2.73993
upperback -4.127 -1.69601 -1.36843
thorax -4.95316 -0.988199 -2.86174
lowerneck -10.3818 6.14694 11.2636
upperneck 21.1883 7.40852 -4.92536
head 8.96847 3.87323 -2.71887
rclavicle -9.34288e-015 -1.55052e-014
rhumerus -23.0879 31.8614 -77.6691
rradius 107.318
rwrist -12.2886
rhand -18.1995 -0.689538
rfingers 7.12502
rthumb 8.07778 -30.5152
lclavicle -9.34288e-015 -1.55052e-014
lhumerus -37.436 -24.8436 68.1953
lradius 78.6613
lwrist -13.0656
lhand -14.2293 7.10287
lfingers 7.12502
lthumb 11.908 36.7442
rfemur -9.53164 4.06758 17.1549
rtibia 24.8938
rfoot -24.3772 -15.7645
rtoes -10.0826
lfemur -38.5731 -22.6966 12.6641
ltibia 11.9045
lfoot -7.9575 37.2915
ltoes 26.2425
